<svg width="100" height="100" viewBox="0 0 100 100" fill="none" xmlns="http://www.w3.org/2000/svg">
<circle cx="50" cy="50" r="50" fill="#8A3F98"/>
<path d="M71.8462 23.9233L71.8835 23.9326C77.2044 25.2592 81.4357 28.7996 83.9677 33.4447L83.9685 33.4462C86.5189 38.1029 87.3811 43.8616 85.954 49.6293L85.9534 49.6314C85.9419 49.679 85.928 49.7352 85.914 49.7914C84.1824 56.7362 80.6045 62.6929 75.9044 67.1877L76.0016 67.0897C71.7277 71.1109 66.9502 74.1732 61.8089 76.2274L61.6314 76.2926C56.0713 78.5934 49.9376 80.0962 43.6594 80.587L43.2018 80.6033L42.5618 80.6285L42.0085 80.3058C36.3025 76.6904 31.596 72.4795 27.5995 67.6373L27.77 67.8327C24.0686 63.4644 21.2881 58.5178 19.4553 53.1309L19.4022 52.9609C17.4071 46.9214 17.0468 39.9876 18.777 33.0482C18.7924 32.9864 18.8079 32.9249 18.8236 32.8634L18.8212 32.8728C21.7344 21.3976 32.6871 14.2589 43.3331 16.9132C48.9562 18.3152 53.3721 22.1698 55.8729 27.1888L55.8813 27.2062C60.4527 23.8943 66.1689 22.5296 71.804 23.9127L71.8073 23.9135L71.8462 23.9233ZM43.8156 75.6002C49.8301 75.025 55.2765 73.639 60.4493 71.5126L60.2155 71.6013C71.6777 66.857 78.8289 59.0808 81.4663 48.5026C82.5683 44.0717 81.9096 39.6467 79.9525 36.0678L79.9529 36.0685C78.0076 32.5002 74.758 29.7815 70.6717 28.7626L70.6148 28.7484C65.4578 27.4806 60.2142 29.2049 56.4938 32.8657L56.4445 32.917L53.8111 35.5107L52.6944 31.9956C51.0696 26.9968 47.2474 23.0631 42.1185 21.7843C33.9515 19.748 25.5496 25.2111 23.2937 33.9987L23.2921 34.005C20.6555 44.5798 23.319 54.8032 31.2112 64.3766C34.616 68.4922 38.7749 72.2707 43.4403 75.3733L43.8156 75.6002ZM64.0375 61.1644L61.8335 56.8891C65.7026 54.4865 68.7507 50.5412 70.0742 45.6446L70.0792 45.6257L70.0808 45.6192C70.5909 43.5734 69.4685 41.5319 67.5737 41.0595L67.5558 41.0552L68.7366 36.2176L68.7786 36.2278C73.1447 37.3164 75.7312 42.0206 74.5558 46.7348L74.5444 46.78L74.5438 46.7825L74.5372 46.809C72.8498 53.0739 68.9673 58.1031 64.0482 61.1581L64.0376 61.1647L64.0375 61.1644Z" fill="white"/>
<path d="M71.8462 23.9233L71.8835 23.9326C77.2044 25.2592 81.4357 28.7996 83.9677 33.4447L83.9685 33.4462C86.5189 38.1029 87.3811 43.8616 85.954 49.6293L85.9534 49.6314C85.9419 49.679 85.928 49.7352 85.914 49.7914C84.1824 56.7362 80.6045 62.6929 75.9044 67.1877L76.0016 67.0897C71.7277 71.1109 66.9502 74.1732 61.8089 76.2274L61.6314 76.2926C56.0713 78.5934 49.9376 80.0962 43.6594 80.587L43.2018 80.6033L42.5618 80.6285L42.0085 80.3058C36.3025 76.6904 31.596 72.4795 27.5995 67.6373L27.77 67.8327C24.0686 63.4644 21.2881 58.5178 19.4553 53.1309L19.4022 52.9609C17.4071 46.9214 17.0468 39.9876 18.777 33.0482C18.7924 32.9864 18.8079 32.9249 18.8236 32.8634L18.8212 32.8728C21.7344 21.3976 32.6871 14.2589 43.3331 16.9132C48.9562 18.3152 53.3721 22.1698 55.8729 27.1888L55.8813 27.2062C60.4527 23.8943 66.1689 22.5296 71.804 23.9127L71.8073 23.9135L71.8462 23.9233ZM43.8156 75.6002C49.8301 75.025 55.2765 73.639 60.4493 71.5126L60.2155 71.6013C71.6777 66.857 78.8289 59.0808 81.4663 48.5026C82.5683 44.0717 81.9096 39.6467 79.9525 36.0678L79.9529 36.0685C78.0076 32.5002 74.758 29.7815 70.6717 28.7626L70.6148 28.7484C65.4578 27.4806 60.2142 29.2049 56.4938 32.8657L56.4445 32.917L53.8111 35.5107L52.6944 31.9956C51.0696 26.9968 47.2474 23.0631 42.1185 21.7843C33.9515 19.748 25.5496 25.2111 23.2937 33.9987L23.2921 34.005C20.6555 44.5798 23.319 54.8032 31.2112 64.3766C34.616 68.4922 38.7749 72.2707 43.4403 75.3733L43.8156 75.6002ZM64.0375 61.1644L61.8335 56.8891C65.7026 54.4865 68.7507 50.5412 70.0742 45.6446L70.0792 45.6257L70.0808 45.6192C70.5909 43.5734 69.4685 41.5319 67.5737 41.0595L67.5558 41.0552L68.7366 36.2176L68.7786 36.2278C73.1447 37.3164 75.7312 42.0206 74.5558 46.7348L74.5444 46.78L74.5438 46.7825L74.5372 46.809C72.8498 53.0739 68.9673 58.1031 64.0482 61.1581L64.0376 61.1647L64.0375 61.1644Z" stroke="black"/>
</svg>
