<svg width="34" height="100" viewBox="0 0 34 100" fill="none" xmlns="http://www.w3.org/2000/svg">
<path d="M23.7177 4.4951L23.7318 4.49861C25.7378 4.99876 27.3321 6.33731 28.2851 8.09472L28.2854 8.09529C29.2453 9.85705 29.5683 12.0367 29.0279 14.2205L29.0277 14.2213C29.0233 14.2393 29.018 14.2606 29.0127 14.2819C28.3571 16.9114 27.0056 19.1677 25.2315 20.8709L25.2682 20.8338C23.6549 22.3576 21.8522 23.5187 19.9126 24.2983L19.8456 24.323C17.748 25.1961 15.4345 25.7673 13.0668 25.9555L12.8942 25.9619L12.6529 25.9716L12.4444 25.8497C10.294 24.4833 8.52081 22.8911 7.01558 21.0597L7.0798 21.1336C5.68569 19.4814 4.63906 17.61 3.95 15.5715L3.93003 15.5072C3.18 13.2217 3.0468 10.5972 3.70191 7.96962C3.70774 7.94626 3.7136 7.92296 3.71954 7.89968L3.71865 7.90324C4.82162 3.55827 8.9546 0.851751 12.9682 1.85244C15.0881 2.381 16.7518 3.83842 17.693 5.73736L17.6961 5.74397C19.4213 4.4885 21.5774 3.96972 23.7018 4.4911L23.7031 4.49142L23.7177 4.4951ZM13.1276 24.0678C15.3959 23.8477 17.4502 23.321 19.4017 22.514L19.3135 22.5477C23.6377 20.7474 26.3374 17.801 27.336 13.7957C27.7533 12.118 27.5066 10.4432 26.7699 9.0892L26.7701 9.08947C26.0379 7.73949 24.8135 6.71156 23.273 6.32746L23.2515 6.3221C21.3073 5.84417 19.3293 6.49887 17.9249 7.88608L17.9063 7.90551L16.9123 8.88835L16.4925 7.55818C15.8817 5.66653 14.4419 4.17892 12.5083 3.69683C9.42929 2.92915 6.25885 5.00036 5.40478 8.32771L5.40418 8.33009C4.40587 12.3341 5.40633 16.2031 8.37881 19.824C9.66116 21.3806 11.228 22.8093 12.9861 23.982L13.1276 24.0678L13.1276 24.0678ZM20.7588 18.5954L19.9293 16.9779C21.3893 16.0669 22.5402 14.5723 23.0412 12.7182L23.0431 12.7111L23.0437 12.7086C23.2368 11.934 22.8143 11.1616 22.1 10.9835C22.0977 10.983 22.0953 10.9824 22.0929 10.9818L22.0932 10.9819L22.5404 9.15021C22.5451 9.15133 22.5506 9.15268 22.5562 9.15406C24.2022 9.56446 25.1758 11.3442 24.7308 13.1292C24.7293 13.1352 24.7278 13.1413 24.7262 13.1473L24.7264 13.1463L24.7237 13.1573C24.085 15.5295 22.619 17.4347 20.7628 18.593L20.7588 18.5955L20.7588 18.5954Z" fill="white"/>
<path fill-rule="evenodd" clip-rule="evenodd" d="M1.11998 98.464V100H33.76V98.592L26.336 97.568C25.056 97.3974 24.2026 96.928 23.776 96.16C23.3493 95.392 23.136 94.0267 23.136 92.064V34.336L22.24 33.696L0.607979 34.848L0.47998 36.128L6.87998 36.64C8.75732 36.7254 9.95198 37.3227 10.464 38.432C10.976 39.5414 11.232 41.5894 11.232 44.576V91.552C11.232 93.6854 11.0186 95.2214 10.592 96.16C10.2506 97.0134 9.35464 97.5254 7.90398 97.696L1.11998 98.464Z" fill="white"/>
</svg>
